<?xml version="1.0" encoding="UTF-8" standalone="no"?>
<!DOCTYPE svg PUBLIC "-//W3C//DTD SVG 1.1//EN"
 "http://www.w3.org/Graphics/SVG/1.1/DTD/svg11.dtd">
<!-- Generated by graphviz version 2.40.1 (0)
 -->
<!-- Title: G Pages: 1 -->
<svg width="352pt" height="206pt"
 viewBox="0.00 0.00 351.50 206.00" xmlns="http://www.w3.org/2000/svg" xmlns:xlink="http://www.w3.org/1999/xlink">
<g id="graph0" class="graph" transform="scale(1 1) rotate(0) translate(4 202)">
<title>G</title>
<polygon fill="#ffffff" stroke="transparent" points="-4,4 -4,-202 347.5,-202 347.5,4 -4,4"/>
<!-- Ex -->
<g id="node1" class="node">
<title>Ex</title>
<polygon fill="none" stroke="#000000" points="206,-198 0,-198 0,-162 206,-162 206,-198"/>
<text text-anchor="middle" x="103" y="-176.3" font-family="Times,serif" font-size="14.00" fill="#000000">Does configuration exists?</text>
</g>
<!-- R -->
<g id="node2" class="node">
<title>R</title>
<polygon fill="none" stroke="#000000" points="194,-36 12,-36 12,0 194,0 194,-36"/>
<text text-anchor="middle" x="103" y="-14.3" font-family="Times,serif" font-size="14.00" fill="#000000">load configuration files</text>
</g>
<!-- Ex&#45;&gt;R -->
<g id="edge1" class="edge">
<title>Ex&#45;&gt;R</title>
<path fill="none" stroke="#000000" d="M103,-161.7314C103,-133.778 103,-80.1418 103,-46.882"/>
<polygon fill="#000000" stroke="#000000" points="106.5001,-46.4503 103,-36.4503 99.5001,-46.4504 106.5001,-46.4503"/>
<text text-anchor="middle" x="115.5" y="-88.3" font-family="Times,serif" font-size="14.00" fill="#000000">Yes</text>
</g>
<!-- C -->
<g id="node3" class="node">
<title>C</title>
<polygon fill="none" stroke="#000000" points="343.5,-111 146.5,-111 146.5,-73 343.5,-73 343.5,-111"/>
<text text-anchor="middle" x="245" y="-95.8" font-family="Times,serif" font-size="14.00" fill="#000000">create configuration files</text>
<text text-anchor="middle" x="245" y="-80.8" font-family="Times,serif" font-size="14.00" fill="#000000"> with default values</text>
</g>
<!-- Ex&#45;&gt;C -->
<g id="edge2" class="edge">
<title>Ex&#45;&gt;C</title>
<path fill="none" stroke="#000000" d="M132.0785,-161.9795C153.2314,-148.8707 182.1189,-130.9686 205.3805,-116.5529"/>
<polygon fill="#000000" stroke="#000000" points="207.336,-119.4587 213.9924,-111.216 203.6486,-113.5086 207.336,-119.4587"/>
<text text-anchor="middle" x="193" y="-132.8" font-family="Times,serif" font-size="14.00" fill="#000000">No</text>
</g>
<!-- C&#45;&gt;R -->
<g id="edge3" class="edge">
<title>C&#45;&gt;R</title>
<path fill="none" stroke="#000000" d="M208.4315,-72.9432C189.7033,-63.1834 166.7578,-51.2259 147.0603,-40.961"/>
<polygon fill="#000000" stroke="#000000" points="148.4615,-37.7445 137.9759,-36.2269 145.2264,-43.9521 148.4615,-37.7445"/>
</g>
</g>
</svg>
